<?xml version="1.0" encoding="utf-8"?>
<!-- Generator: Adobe Illustrator 16.0.0, SVG Export Plug-In . SVG Version: 6.00 Build 0)  -->
<!DOCTYPE svg PUBLIC "-//W3C//DTD SVG 1.1//EN" "http://www.w3.org/Graphics/SVG/1.1/DTD/svg11.dtd">
<svg version="1.1" id="Camada_1" xmlns="http://www.w3.org/2000/svg" xmlns:xlink="http://www.w3.org/1999/xlink" x="0px" y="0px"
	 width="113px" height="102px" viewBox="0 0 113 102" enable-background="new 0 0 113 102" xml:space="preserve">
<g>
	<path fill="#29ABE2" d="M77,44.813c-0.102-0.314-0.373-0.544-0.7-0.591l-11.652-1.694L59.438,31.97
		c-0.147-0.296-0.448-0.483-0.778-0.483c-0.332,0-0.632,0.188-0.778,0.483L52.67,42.527L41.02,44.222
		c-0.327,0.047-0.599,0.276-0.701,0.591c-0.103,0.313-0.017,0.658,0.219,0.889l8.431,8.219l-1.99,11.604
		c-0.055,0.325,0.079,0.654,0.345,0.849c0.268,0.194,0.622,0.22,0.914,0.065L58.66,60.96l10.422,5.479
		c0.126,0.066,0.265,0.1,0.403,0.1c0.18,0,0.359-0.057,0.51-0.166c0.267-0.194,0.4-0.523,0.345-0.849l-1.99-11.604l8.432-8.219
		C77.018,45.471,77.103,45.126,77,44.813z M66.812,52.996c-0.205,0.199-0.298,0.486-0.25,0.768l1.77,10.321l-9.27-4.874
		c-0.126-0.065-0.265-0.1-0.403-0.1c-0.139,0-0.278,0.034-0.404,0.102l-9.268,4.871l1.769-10.32c0.048-0.281-0.045-0.568-0.25-0.768
		l-7.499-7.311l10.364-1.506c0.282-0.041,0.525-0.219,0.652-0.475l4.635-9.391l4.635,9.391c0.126,0.256,0.37,0.434,0.653,0.475
		l10.364,1.506L66.812,52.996z"/>
	<path fill="#29ABE2" d="M28.336,36.127c1.125-2.269,2.51-4.416,4.118-6.384c0.303-0.372,0.249-0.918-0.123-1.222
		c-0.372-0.304-0.918-0.248-1.221,0.123c-1.69,2.069-3.146,4.327-4.328,6.712c-0.212,0.429-0.038,0.95,0.391,1.162
		c0.125,0.062,0.256,0.091,0.385,0.091C27.878,36.609,28.186,36.433,28.336,36.127z"/>
	<path fill="#29ABE2" d="M50.533,17.385c0.086,0.408,0.447,0.688,0.848,0.688c0.06,0,0.12,0.338,0.182,0.324
		C54.03,17.871,56.59,18,59.122,18c0.004,0,0.008,0,0.012,0c0.474,0,0.861-0.725,0.868-1.201c0.005-0.479-0.378-1.017-0.857-1.024
		c-2.662-0.033-5.351,0.127-7.944,0.68C50.731,16.555,50.433,16.916,50.533,17.385z"/>
	<path fill="#29ABE2" d="M24.583,57.704c-0.468,0.103-0.765,0.564-0.663,1.032c0.568,2.605,1.435,5.148,2.574,7.561
		c0.149,0.313,0.461,0.497,0.786,0.497c0.125,0,0.251-0.027,0.37-0.084c0.433-0.205,0.619-0.722,0.414-1.155
		c-1.084-2.293-1.907-4.711-2.448-7.188C25.514,57.898,25.053,57.602,24.583,57.704z"/>
	<path fill="#29ABE2" d="M24.066,42.82c-0.613,2.584-0.938,5.463-0.962,8.141C23.1,51.439,23.485,52,23.963,52
		c0.003,0,0.006,0,0.009,0c0.476,0,0.863-0.553,0.867-1.031c0.023-2.545,0.331-5.122,0.916-7.579
		c0.11-0.466-0.178-1.012-0.644-1.123C24.642,42.153,24.176,42.354,24.066,42.82z"/>
	<path fill="#29ABE2" d="M81.258,23.684c-0.37-0.303-0.916-0.252-1.221,0.118c-0.305,0.369-0.253,0.916,0.117,1.222
		c1.957,1.613,3.735,3.449,5.285,5.457c0.171,0.221,0.427,0.338,0.687,0.338c0.185,0,0.372-0.059,0.53-0.181
		c0.379-0.293,0.448-0.838,0.157-1.218C85.184,27.311,83.315,25.38,81.258,23.684z"/>
	<path fill="#29ABE2" d="M89.799,35.822c-0.436,0.201-0.625,0.717-0.425,1.151c1.063,2.303,1.864,4.729,2.382,7.212
		c0.085,0.408,0.446,0.689,0.848,0.689c0.058,0,0.118-0.006,0.177-0.018c0.47-0.099,0.771-0.558,0.673-1.026
		c-0.545-2.611-1.388-5.163-2.504-7.584C90.75,35.812,90.234,35.621,89.799,35.822z"/>
	<path fill="#29ABE2" d="M73.789,20.876c0.125,0.063,0.258,0.093,0.388,0.093c0.318,0,0.625-0.176,0.777-0.479
		c0.214-0.429,0.041-0.95-0.387-1.165c-2.387-1.196-4.91-2.121-7.501-2.75c-0.464-0.113-0.934,0.174-1.047,0.639
		c-0.113,0.466,0.174,0.936,0.639,1.047C69.121,18.858,71.52,19.739,73.789,20.876z"/>
	<path fill="#29ABE2" d="M43.034,83.067c2.396,1.174,4.928,2.076,7.525,2.681c0.065,0.016,0.132,0.022,0.197,0.022
		c0.394,0,0.75-0.271,0.844-0.671c0.109-0.467-0.181-0.934-0.648-1.042c-2.469-0.574-4.876-1.432-7.155-2.55
		c-0.431-0.21-0.951-0.031-1.161,0.398C42.426,82.337,42.604,82.855,43.034,83.067z"/>
	<path fill="#29ABE2" d="M85.183,73.48c0.16,0.129,0.352,0.19,0.543,0.19c0.253,0,0.506-0.11,0.678-0.325
		c1.669-2.083,3.105-4.354,4.266-6.751c0.209-0.432,0.028-0.95-0.403-1.159c-0.429-0.208-0.95-0.028-1.159,0.403
		c-1.103,2.279-2.468,4.44-4.059,6.422C84.75,72.635,84.809,73.181,85.183,73.48z"/>
	<path fill="#29ABE2" d="M73.226,81.646c-0.432,0.208-0.615,0.725-0.408,1.157c0.148,0.312,0.459,0.494,0.783,0.494
		c0.126,0,0.253-0.028,0.374-0.086c2.4-1.148,4.678-2.572,6.769-4.232c0.375-0.298,0.438-0.844,0.14-1.219
		c-0.299-0.375-0.844-0.438-1.219-0.14C77.675,79.199,75.509,80.554,73.226,81.646z"/>
	<path fill="#29ABE2" d="M44.363,20.467c0.434-0.202,0.621-0.719,0.419-1.153c-0.204-0.434-0.719-0.622-1.154-0.419
		c-2.411,1.126-4.701,2.528-6.807,4.17c-0.378,0.295-0.446,0.84-0.15,1.218c0.17,0.22,0.427,0.334,0.685,0.334
		c0.187,0,0.375-0.06,0.534-0.183C39.891,22.872,42.069,21.538,44.363,20.467z"/>
	<path fill="#29ABE2" d="M92.469,51.123c0,2.549-0.285,5.088-0.846,7.548c-0.107,0.468,0.186,0.933,0.653,1.039
		c0.065,0.016,0.13,0.022,0.194,0.022c0.396,0,0.753-0.273,0.845-0.676c0.59-2.586,0.889-5.255,0.889-7.934
		c0-0.479-0.388-0.867-0.868-0.867S92.469,50.644,92.469,51.123z"/>
	<path fill="#29ABE2" d="M66.049,84.158C63.638,84.697,61.149,85,58.653,85h-0.157c-0.001,0-0.002,0-0.002,0
		c-0.478,0-0.867,0.019-0.869,0.497C57.625,85.976,58.011,86,58.49,86h0.163c2.622,0,5.238,0.043,7.774-0.523
		c0.468-0.104,0.763-0.363,0.658-0.83C66.981,84.178,66.516,84.055,66.049,84.158z"/>
	<path fill="#29ABE2" d="M36.302,78.77c0.161,0.13,0.354,0.193,0.546,0.193c0.252,0,0.503-0.109,0.674-0.321
		c0.302-0.373,0.244-0.919-0.128-1.221c-1.971-1.596-3.766-3.415-5.335-5.409c-0.296-0.377-0.841-0.441-1.218-0.145
		c-0.377,0.296-0.442,0.841-0.145,1.217C32.345,75.181,34.231,77.093,36.302,78.77z"/>
	<path fill="#29ABE2" d="M96.668,43.269c0.081,0.415,0.443,0.701,0.85,0.701c0.055,0,0.112-0.006,0.168-0.017
		c0.471-0.094,0.776-0.549,0.684-1.02c-0.917-4.659-2.631-9.087-5.095-13.157c-0.248-0.41-0.782-0.542-1.191-0.294
		c-0.411,0.248-0.542,0.782-0.293,1.191C94.148,34.571,95.789,38.809,96.668,43.269z"/>
	<path fill="#29ABE2" d="M63.662,89.52c-4.461,0.603-9.104,0.43-13.501-0.514c-0.471-0.1-0.93,0.199-1.03,0.668
		c-0.101,0.468,0.198,0.929,0.667,1.029c2.803,0.602,5.69,0.905,8.582,0.905c1.845,0,3.7-0.124,5.515-0.37
		c0.474-0.063,0.808-0.501,0.744-0.976C64.573,89.787,64.136,89.457,63.662,89.52z"/>
	<path fill="#29ABE2" d="M99.054,48.203c-0.031-0.479-0.451-0.835-0.922-0.811c-0.479,0.03-0.841,0.443-0.811,0.922
		c0.054,0.84,0.082,1.692,0.082,2.535c0,4.571-0.784,9.05-2.329,13.31c-0.163,0.45,0.069,0.947,0.521,1.111
		c0.097,0.034,0.197,0.052,0.295,0.052c0.354,0,0.687-0.219,0.815-0.572c1.614-4.449,2.433-9.127,2.433-13.9
		C99.139,49.971,99.11,49.08,99.054,48.203z"/>
	<path fill="#29ABE2" d="M78.753,17.559c3.875,2.377,7.282,5.387,10.126,8.945c0.172,0.214,0.423,0.326,0.678,0.326
		c0.19,0,0.381-0.063,0.541-0.191c0.374-0.299,0.436-0.845,0.136-1.219c-2.969-3.715-6.526-6.858-10.574-9.341
		c-0.408-0.249-0.942-0.122-1.194,0.286C78.216,16.773,78.344,17.309,78.753,17.559z"/>
	<path fill="#29ABE2" d="M19.151,43.508c0.06,0.014,0.12,0.02,0.178,0.02c0.402,0,0.763-0.281,0.849-0.691
		c0.928-4.449,2.618-8.668,5.021-12.54c0.253-0.407,0.128-0.941-0.279-1.194c-0.407-0.254-0.942-0.129-1.196,0.279
		c-2.511,4.045-4.275,8.452-5.245,13.101C18.381,42.95,18.683,43.41,19.151,43.508z"/>
	<path fill="#29ABE2" d="M80.864,82.748c-3.725,2.631-7.835,4.568-12.218,5.761c-0.462,0.126-0.735,0.603-0.609,1.065
		c0.105,0.385,0.455,0.64,0.837,0.64c0.075,0,0.151-0.01,0.228-0.031c4.578-1.245,8.872-3.27,12.762-6.017
		c0.392-0.277,0.485-0.818,0.208-1.209C81.796,82.565,81.255,82.472,80.864,82.748z"/>
	<path fill="#29ABE2" d="M94.198,68.449c-0.424-0.221-0.948-0.056-1.169,0.37c-2.095,4.03-4.857,7.642-8.208,10.731
		c-0.353,0.324-0.375,0.873-0.05,1.226c0.17,0.186,0.404,0.279,0.638,0.279c0.21,0,0.421-0.075,0.588-0.229
		c3.5-3.227,6.385-6.997,8.572-11.208C94.79,69.194,94.624,68.67,94.198,68.449z"/>
	<path fill="#29ABE2" d="M22.456,66.121c-0.188-0.441-0.699-0.647-1.138-0.46c-0.441,0.188-0.646,0.697-0.458,1.139
		c1.857,4.364,4.445,8.342,7.691,11.826c0.171,0.184,0.402,0.276,0.635,0.276c0.211,0,0.423-0.078,0.591-0.232
		c0.351-0.328,0.37-0.877,0.043-1.228C26.711,74.107,24.234,70.297,22.456,66.121z"/>
	<path fill="#29ABE2" d="M27.487,26.474c0.251,0,0.5-0.107,0.672-0.317c2.885-3.525,6.325-6.496,10.227-8.827
		c0.412-0.247,0.545-0.779,0.3-1.19c-0.246-0.411-0.778-0.546-1.189-0.3c-4.075,2.436-7.668,5.537-10.68,9.218
		c-0.304,0.371-0.249,0.918,0.122,1.221C27.099,26.41,27.294,26.474,27.487,26.474z"/>
	<path fill="#29ABE2" d="M20.775,61.319c-0.943-3.394-1.421-6.916-1.42-10.47c0-0.99,0.037-1.992,0.111-2.977
		c0.036-0.478-0.322-0.895-0.8-0.93c-0.477-0.037-0.894,0.322-0.93,0.8c-0.077,1.028-0.116,2.073-0.116,3.106
		c-0.001,3.711,0.499,7.391,1.483,10.934c0.107,0.385,0.456,0.636,0.836,0.636c0.076,0,0.154-0.011,0.232-0.031
		C20.633,62.26,20.902,61.781,20.775,61.319z"/>
	<path fill="#29ABE2" d="M42.567,15.081c0.115,0,0.231-0.022,0.344-0.07c4.166-1.801,8.587-2.851,13.141-3.118
		c0.478-0.027,0.844-0.438,0.814-0.916c-0.028-0.479-0.451-0.849-0.916-0.815c-4.757,0.279-9.375,1.375-13.729,3.257
		c-0.439,0.189-0.642,0.7-0.452,1.141C41.912,14.885,42.231,15.081,42.567,15.081z"/>
	<path fill="#29ABE2" d="M45.264,87.615c-4.277-1.526-8.228-3.774-11.742-6.682c-0.37-0.305-0.916-0.254-1.222,0.115
		c-0.305,0.369-0.254,0.916,0.116,1.223c3.671,3.036,7.798,5.384,12.266,6.979c0.096,0.033,0.194,0.05,0.291,0.05
		c0.356,0,0.691-0.221,0.817-0.576C45.95,88.272,45.715,87.775,45.264,87.615z"/>
	<path fill="#29ABE2" d="M61.141,11.921c4.55,0.318,8.96,1.417,13.108,3.266c0.115,0.052,0.235,0.075,0.353,0.075
		c0.333,0,0.649-0.19,0.794-0.514c0.195-0.438-0.002-0.95-0.439-1.146c-4.334-1.932-8.942-3.08-13.694-3.411
		c-0.481-0.038-0.893,0.326-0.926,0.806C60.303,11.474,60.664,11.888,61.141,11.921z"/>
	<path fill="#29ABE2" d="M80.269,31.799c-0.373,0.302-0.43,0.849-0.129,1.221c1.236,1.525,2.307,3.186,3.186,4.934
		c0.152,0.304,0.458,0.479,0.776,0.479c0.13,0,0.263-0.029,0.388-0.092c0.428-0.216,0.602-0.737,0.387-1.165
		c-0.934-1.86-2.074-3.626-3.387-5.247C81.187,31.555,80.64,31.498,80.269,31.799z"/>
	<path fill="#29ABE2" d="M87.06,43.029c-0.118-0.465-0.589-0.747-1.054-0.628c-0.465,0.117-0.746,0.59-0.628,1.054
		c0.48,1.893,0.756,3.85,0.821,5.815c0.006,0.17,0.06,0.327,0.148,0.457c-0.083,0.135-0.132,0.292-0.132,0.463
		c0,1.969-0.211,3.933-0.626,5.84c-0.102,0.469,0.196,0.931,0.664,1.032c0.063,0.014,0.125,0.02,0.186,0.02
		c0.399,0,0.758-0.276,0.847-0.682c0.442-2.029,0.666-4.117,0.666-6.21c0-0.181-0.055-0.349-0.148-0.486
		c0.089-0.142,0.139-0.311,0.132-0.49C87.864,47.123,87.57,45.042,87.06,43.029z"/>
	<path fill="#29ABE2" d="M82.089,67.687c1.259-1.667,2.339-3.47,3.21-5.36c0.201-0.436,0.01-0.951-0.424-1.151
		c-0.436-0.2-0.951-0.011-1.151,0.425c-0.818,1.777-1.834,3.474-3.018,5.04c-0.289,0.382-0.214,0.927,0.168,1.216
		c0.157,0.117,0.341,0.175,0.523,0.175C81.66,68.03,81.918,67.912,82.089,67.687z"/>
	<path fill="#29ABE2" d="M42.889,74.414c0.148,0.098,0.313,0.145,0.478,0.145c0.282,0,0.558-0.136,0.725-0.388
		c0.265-0.399,0.156-0.938-0.244-1.202c-1.633-1.083-3.154-2.345-4.522-3.753c-0.333-0.343-0.882-0.352-1.226-0.017
		c-0.345,0.333-0.352,0.883-0.019,1.227C39.536,71.922,41.153,73.265,42.889,74.414z"/>
	<path fill="#29ABE2" d="M31.781,42.516c0.087,0.027,0.175,0.041,0.262,0.041c0.368,0,0.71-0.236,0.827-0.605
		c0.59-1.867,1.386-3.676,2.367-5.377c0.239-0.415,0.096-0.945-0.318-1.185c-0.416-0.239-0.946-0.097-1.185,0.318
		c-1.043,1.81-1.89,3.733-2.519,5.719C31.071,41.884,31.324,42.371,31.781,42.516z"/>
	<path fill="#29ABE2" d="M76.681,70.92c-1.49,1.278-3.118,2.396-4.841,3.325c-0.422,0.228-0.58,0.753-0.353,1.176
		c0.157,0.29,0.456,0.456,0.765,0.456c0.139,0,0.28-0.033,0.411-0.104c1.833-0.987,3.564-2.177,5.149-3.535
		c0.363-0.313,0.406-0.86,0.093-1.224C77.592,70.65,77.046,70.608,76.681,70.92z"/>
	<path fill="#29ABE2" d="M31.525,59.877c0.694,1.963,1.606,3.857,2.708,5.63c0.164,0.265,0.448,0.409,0.737,0.409
		c0.157,0,0.315-0.043,0.458-0.131c0.407-0.254,0.531-0.787,0.278-1.194c-1.036-1.667-1.893-3.447-2.545-5.293
		c-0.16-0.452-0.655-0.688-1.107-0.528C31.602,58.93,31.365,59.426,31.525,59.877z"/>
	<path fill="#29ABE2" d="M31.059,54.55c0.476-0.058,0.813-0.492,0.754-0.968c-0.138-1.118-0.208-2.259-0.208-3.392
		c0-0.826,0.037-1.661,0.112-2.483c0.042-0.477-0.309-0.897-0.787-0.941c-0.482-0.043-0.898,0.311-0.941,0.787
		c-0.079,0.873-0.119,1.76-0.119,2.638c0,1.203,0.075,2.416,0.223,3.605c0.054,0.439,0.428,0.762,0.859,0.762
		C30.987,54.558,31.022,54.556,31.059,54.55z"/>
	<path fill="#29ABE2" d="M66.398,76.454c-1.88,0.536-3.827,0.868-5.788,0.988c-0.478,0.028-0.842,0.353-0.813,0.831
		C59.825,78.734,60.207,79,60.662,79c0.019,0,0.037,0,0.054,0c2.086,0,4.158-0.395,6.159-0.963c0.46-0.133,0.728-0.567,0.597-1.028
		C67.339,76.548,66.86,76.324,66.398,76.454z"/>
	<path fill="#29ABE2" d="M70.633,24.551c-0.213,0.43-0.038,0.95,0.392,1.163c1.753,0.87,3.419,1.933,4.951,3.161
		c0.16,0.129,0.352,0.19,0.542,0.19c0.254,0,0.506-0.111,0.678-0.324c0.299-0.374,0.239-0.92-0.135-1.22
		c-1.63-1.307-3.4-2.438-5.266-3.361C71.367,23.945,70.846,24.122,70.633,24.551z"/>
	<path fill="#29ABE2" d="M54.611,78.904c0.421,0,0.791-0.309,0.856-0.736c0.073-0.475-0.252-0.917-0.726-0.989
		c-1.939-0.298-3.849-0.806-5.675-1.513c-0.446-0.172-0.949,0.049-1.123,0.496c-0.172,0.447,0.049,0.949,0.497,1.122
		c1.943,0.753,3.975,1.294,6.039,1.61C54.522,78.9,54.567,78.904,54.611,78.904z"/>
	<path fill="#29ABE2" d="M59.741,21.162c-0.49-0.011-0.878,0.364-0.891,0.843c-0.014,0.479,0.364,0.878,0.843,0.892
		c1.967,0.056,3.924,0.322,5.819,0.793c0.07,0.018,0.141,0.025,0.21,0.025c0.389,0,0.743-0.265,0.841-0.659
		c0.115-0.465-0.169-0.936-0.633-1.051C63.914,21.505,61.833,21.221,59.741,21.162z"/>
	<path fill="#29ABE2" d="M38.057,32.113c0.237,0,0.472-0.096,0.643-0.285c1.32-1.451,2.798-2.763,4.394-3.898
		c0.391-0.278,0.481-0.819,0.203-1.21c-0.278-0.392-0.819-0.481-1.21-0.204c-1.697,1.208-3.269,2.603-4.671,4.146
		c-0.322,0.354-0.297,0.902,0.058,1.225C37.641,32.039,37.85,32.113,38.057,32.113z"/>
	<path fill="#29ABE2" d="M47.876,25.129c0.114,0,0.229-0.023,0.34-0.07c1.802-0.767,3.693-1.34,5.619-1.702
		c0.472-0.089,0.781-0.542,0.693-1.014c-0.088-0.471-0.542-0.78-1.013-0.692c-2.05,0.386-4.063,0.995-5.979,1.813
		c-0.441,0.188-0.646,0.697-0.458,1.139C47.218,24.931,47.539,25.129,47.876,25.129z"/>
</g>
</svg>
