<?xml version="1.0" encoding="utf-8"?>
<!-- Generator: Adobe Illustrator 16.0.0, SVG Export Plug-In . SVG Version: 6.00 Build 0)  -->
<!DOCTYPE svg PUBLIC "-//W3C//DTD SVG 1.1//EN" "http://www.w3.org/Graphics/SVG/1.1/DTD/svg11.dtd">
<svg version="1.1" id="Camada_1" xmlns="http://www.w3.org/2000/svg" xmlns:xlink="http://www.w3.org/1999/xlink" x="0px" y="0px"
	 width="113px" height="102px" viewBox="0 0 113 102" enable-background="new 0 0 113 102" xml:space="preserve">
<g>
	<path fill="none" d="M78.758,55.829c6.213-0.48,14.922-1.729,19.36-4.94c0,0-5.613-3.955-19.14-3.554
		c13.228-4.943,16.981-11.061,16.981-11.061c-6.036-1.358-13.983,0.691-20.249,2.985C86.59,29.207,87.469,21.865,87.469,21.865
		c-6.018,1.067-13.071,6.842-17.849,11.313c4.882-13.079,3.178-20.728,3.178-20.728c-5.103,3.596-8.73,10.958-11.019,17.115
		c-0.127-6.595-1.129-14.875-4.852-19.93c0,0-5.281,4.832-4.418,20.155c-0.115,0.022,0.01-0.001-0.104,0.022
		c-2.226-6.445-5.912-13.416-11.514-17.363c0,0-1.597,7.971,3.285,21.05c-4.777-4.47-11.938-10.568-17.955-11.636
		c0,0,1.336,7.697,12.215,17.75c-6.265-2.294-14.669-4.699-20.706-3.341c0,0,4.441,6.192,17.67,11.136
		c-13.528-0.401-19.828,3.479-19.828,3.479c4.677,3.387,13.432,4.382,19.883,4.799C23.124,60.549,18.321,66.6,18.321,66.6
		c6.036,1.357,13.984-0.692,20.249-2.986C27.691,73.666,26.812,81.008,26.812,81.008c6.019-1.067,13.002-6.951,17.78-11.423
		c-4.882,13.081-3.109,20.837-3.109,20.837c5.103-3.595,8.73-10.957,11.019-17.113c0.128,6.594,1.128,14.873,4.852,19.928
		c0,0,5.469-4.089,4.485-19.734c0.074-0.545-0.243-0.476-0.167-0.493c2.203,6.493,5.99,13.376,11.719,17.413
		c0,0,1.563-8.057-3.318-21.137c4.778,4.472,11.971,10.655,17.989,11.723c0,0-1.441-7.671-12.321-17.725
		c6.265,2.295,14.775,4.674,20.811,3.316C96.55,66.6,91.237,60.706,78.758,55.829z"/>
	<path fill="#29ABE2" d="M98.598,50.208c-0.204-0.143-4.792-3.288-15.437-3.691c10.227-4.615,13.365-9.574,13.508-9.808
		c0.141-0.229,0.162-0.512,0.057-0.758c-0.104-0.248-0.322-0.431-0.584-0.49c-4.39-0.986-10.247-0.357-17.222,1.827
		c8.501-8.804,9.341-15.039,9.375-15.323c0.031-0.263-0.063-0.524-0.254-0.705c-0.192-0.181-0.458-0.261-0.718-0.215
		c-4.325,0.768-9.649,3.904-15.852,9.335c3.587-11.271,2.206-17.813,2.139-18.109c-0.061-0.272-0.252-0.495-0.512-0.596
		s-0.552-0.064-0.78,0.096c-4.352,3.067-7.629,8.756-9.883,13.935c-0.422-5.715-1.663-12.252-4.838-16.563
		c-0.14-0.19-0.354-0.313-0.589-0.336c-0.232-0.021-0.469,0.056-0.643,0.215c-0.205,0.188-4.535,4.302-4.774,16.414
		c-2.144-4.899-5.415-10.28-10.22-13.665c-0.231-0.162-0.527-0.197-0.789-0.093c-0.261,0.104-0.452,0.334-0.507,0.609
		c-0.062,0.309-1.35,7.102,2.247,18.4c-6.485-5.73-11.722-8.891-15.955-9.643c-0.268-0.047-0.541,0.039-0.733,0.23
		c-0.193,0.191-0.28,0.465-0.233,0.731c0.052,0.297,1.266,6.788,9.803,15.615c-7.468-2.396-13.389-3.121-17.655-2.161
		c-0.272,0.063-0.496,0.256-0.596,0.518c-0.1,0.26-0.062,0.554,0.102,0.781c0.167,0.233,3.833,5.218,14.14,9.829
		c-10.734,0.389-15.833,3.452-16.059,3.591c-0.237,0.146-0.385,0.4-0.396,0.678c-0.01,0.278,0.119,0.543,0.344,0.706
		c4.116,2.979,11.038,4.146,16.902,4.689c-10.073,4.584-14.133,9.597-14.317,9.828c-0.178,0.226-0.228,0.524-0.133,0.795
		s0.323,0.473,0.602,0.535c4.389,0.987,10.248,0.357,17.222-1.827c-8.501,8.806-9.341,15.041-9.375,15.325
		c-0.032,0.262,0.063,0.523,0.254,0.704c0.192,0.182,0.458,0.261,0.717,0.215c4.262-0.756,9.445-3.851,15.784-9.437
		c-3.577,11.284-2.139,17.916-2.07,18.216c0.062,0.271,0.254,0.493,0.514,0.592c0.259,0.1,0.551,0.063,0.778-0.096
		c4.351-3.066,7.629-8.756,9.882-13.935c0.422,5.715,1.662,12.251,4.838,16.562c0.132,0.179,0.329,0.298,0.548,0.33
		c0.04,0.006,0.081,0.01,0.122,0.01c0.179,0,0.354-0.059,0.499-0.166c0.213-0.16,4.71-3.677,4.93-15.837
		c2.114,4.612,5.341,9.663,10.127,13.036c0.232,0.162,0.529,0.195,0.791,0.091c0.262-0.105,0.453-0.337,0.506-0.614
		c0.061-0.311,1.318-7.167-2.277-18.469c4.692,4.176,10.691,8.776,15.985,9.716c0.27,0.047,0.545-0.041,0.737-0.236
		c0.193-0.194,0.277-0.474,0.227-0.742c-0.056-0.296-1.357-6.767-9.905-15.586c5.303,1.696,9.88,2.542,13.641,2.542l0,0
		c1.502,0,2.888-0.128,4.119-0.405c0.288-0.065,0.521-0.267,0.611-0.548c0.089-0.282,0.022-0.591-0.175-0.811
		c-0.203-0.225-4.696-5.122-15.009-9.696c5.908-0.665,12.634-2.021,16.446-4.781c0.218-0.157,0.346-0.411,0.345-0.681
		C98.949,50.615,98.817,50.362,98.598,50.208z M94.454,36.85c-1.623,1.849-5.945,5.897-15.003,9.413
		c-0.533-2.303-1.42-4.5-2.613-6.521C83.951,37.225,89.932,36.23,94.454,36.85z M57.135,72.65c-1.968,0-3.935-0.276-5.847-0.822
		c-5.458-1.559-9.983-5.148-12.741-10.111c-2.419-4.353-3.333-9.305-2.441-14.14C36.107,47.574,36,47.573,36,47.57
		c0-0.002,0-0.004,0-0.006c0-0.672,0.389-1.341,0.578-2.006c2.165-7.577,8.425-13.242,15.9-14.913
		c0.048-0.002,0.121-0.006,0.167-0.017c0.011-0.002-0.004-0.004-0.024-0.007c0.013-0.003,0.104-0.007,0.116-0.009
		C52.774,30.611,53,30.609,53,30.607v0.002c0-0.014,0.073-0.043,0.136-0.075c1.316-0.259,2.635-0.397,4.011-0.397
		c1.968,0,3.917,0.276,5.829,0.822c11.268,3.217,17.81,15.002,14.593,26.27C74.975,66.309,66.567,72.65,57.135,72.65z
		 M86.351,22.978c-0.715,2.363-3.087,7.983-10.595,15.1c-1.339-1.876-2.962-3.557-4.828-4.969
		C76.903,27.627,82.19,24.154,86.351,22.978z M72.164,13.999c0.225,2.611,0.239,8.87-2.976,17.916
		c-1.757-1.09-3.688-1.962-5.773-2.558c-0.2-0.057-0.402-0.109-0.604-0.162C64.778,24.054,67.892,17.646,72.164,13.999z
		 M56.865,11.025c3.015,4.809,3.891,12.092,4.062,17.77c-1.263-0.214-2.538-0.324-3.815-0.324c-1.26,0-2.504,0.106-3.721,0.309
		C52.951,18.018,55.592,12.832,56.865,11.025z M41.576,13.999c4.874,3.991,7.97,10.243,9.782,15.218
		c-2.413,0.634-4.689,1.656-6.748,3.004C41.389,23.147,41.379,16.685,41.576,13.999z M27.41,22.999
		c4.071,1.186,9.167,4.63,15.491,10.456c-1.754,1.391-3.311,3.035-4.603,4.889C30.874,31.28,28.256,25.469,27.41,22.999z
		 M19.336,36.844c4.371-0.529,10.385,0.562,17.877,3.219c-0.896,1.566-1.616,3.252-2.127,5.039
		c-0.112,0.393-0.211,0.787-0.302,1.182C25.807,42.781,21.153,38.723,19.336,36.844z M17.272,50.982
		c2.262-0.978,7.588-2.769,16.187-2.769c0.317,0,0.645,0.01,0.968,0.014c-0.311,2.191-0.298,4.396,0.025,6.559
		C30.513,54.512,22.229,53.752,17.272,50.982z M19.983,66.044c1.894-1.855,6.565-5.792,14.875-9.212
		c0.482,1.965,1.225,3.879,2.234,5.695c0.114,0.204,0.235,0.402,0.354,0.603C30.414,65.619,24.49,66.619,19.983,66.044z
		 M27.93,79.896c0.714-2.363,3.087-7.986,10.603-15.107c1.341,1.869,2.939,3.506,4.747,4.874
		C37.073,75.372,32.026,78.741,27.93,79.896z M42.107,88.882c-0.244-2.621-0.307-8.946,2.914-18.022
		c1.786,1.107,3.734,1.978,5.81,2.57c0.221,0.063,0.443,0.121,0.666,0.178C49.529,78.766,46.403,85.22,42.107,88.882z
		 M57.461,91.922c-3.067-4.832-3.944-12.207-4.109-17.925c1.252,0.21,2.517,0.319,3.783,0.319c1.321,0,2.623-0.118,3.896-0.34
		C61.667,85.357,58.771,90.298,57.461,91.922z M72.724,88.875c-5.149-4.164-8.229-10.449-9.962-15.27
		c2.464-0.632,4.788-1.671,6.886-3.046C72.878,79.653,72.912,86.171,72.724,88.875z M86.85,79.862
		c-5.756-1.719-12.481-7.72-15.506-10.528c1.722-1.364,3.25-2.974,4.528-4.784C83.283,71.594,85.966,77.384,86.85,79.862z
		 M94.771,66.037c-0.68,0.076-1.4,0.103-2.156,0.103l0,0c-4.163,0-9.421-1.107-15.639-3.31c0.924-1.596,1.663-3.318,2.185-5.145
		c0.068-0.242,0.126-0.483,0.187-0.726C87.726,60.363,92.689,64.192,94.771,66.037z M79.764,54.909
		c0.355-2.282,0.357-4.557,0.038-6.761c0.362-0.005,0.724-0.01,1.079-0.01c8.537,0,13.523,1.815,15.605,2.805
		C92.275,53.33,85.37,54.416,79.764,54.909z"/>
	<circle fill="#29ABE2" cx="56.899" cy="50.336" r="2.064"/>
	<circle fill="#29ABE2" cx="56.899" cy="63.242" r="2.064"/>
	<circle fill="#29ABE2" cx="68.556" cy="55.749" r="2.064"/>
	<circle fill="#29ABE2" cx="45.241" cy="55.749" r="2.064"/>
	<circle fill="#29ABE2" cx="65.226" cy="41.594" r="2.064"/>
	<circle fill="#29ABE2" cx="48.989" cy="41.594" r="2.064"/>
</g>
</svg>
