<?xml version="1.0" encoding="utf-8"?>
<!-- Generator: Adobe Illustrator 16.0.0, SVG Export Plug-In . SVG Version: 6.00 Build 0)  -->
<!DOCTYPE svg PUBLIC "-//W3C//DTD SVG 1.1//EN" "http://www.w3.org/Graphics/SVG/1.1/DTD/svg11.dtd">
<svg version="1.1" id="Camada_1" xmlns="http://www.w3.org/2000/svg" xmlns:xlink="http://www.w3.org/1999/xlink" x="0px" y="0px"
	 width="81.333px" height="102px" viewBox="0 0 81.333 102" enable-background="new 0 0 81.333 102" xml:space="preserve">
<path fill-rule="evenodd" clip-rule="evenodd" fill="#FFFFFF" d="M58.209,19.604c2.936-0.092,5.868-0.021,8.815-0.028
	c0.359,0,0.716,0,1.211,0V4.305c-1.567-0.157-3.207-0.385-4.849-0.465c-3.012-0.127-6.029-0.285-9.048-0.213
	c-4.604,0.096-8.958,1.215-12.763,3.945c-4.362,3.139-6.757,7.547-7.668,12.752c-0.378,2.146-0.481,4.372-0.535,6.557
	c-0.082,3.428-0.015,6.853-0.015,10.283v1.282H18.747v17.061h14.531v42.884h17.759V55.579h14.484
	c0.741-5.677,1.464-11.295,2.22-17.146c-1.161,0-2.202,0-3.249,0c-4.116,0.018-13.572,0-13.572,0s0.042-8.451,0.142-12.122
	C51.197,21.286,54.182,19.748,58.209,19.604z"/>
<g>
	<path fill="#FFFFFF" d="M286.802,31.783c-0.021,0.268-0.039,0.488-0.039,0.695c0,5.344,0.018,16.908,0.018,16.908
		s22.245,0,23.442,0c0,1.741-2.057,8.735-8.603,13.18c-3.84,2.601-8.162,3.799-12.737,4.094c-3.226,0.203-6.4-0.117-9.497-1.104
		c-9.788-3.144-17.07-11.99-18.068-22.772c-0.239-2.657-0.071-5.327,0.538-7.942c2.904-12.753,14.979-22.202,28.809-20.16
		c6.132,0.901,9.656,3.456,12.877,6.203c4.223-4.24,8.417-8.435,12.735-12.757c-1.044-0.758-3.463-3.21-7.757-5.696
		c-6.438-3.714-13.369-5.573-20.781-5.652c-1.399-0.021-2.797,0.067-4.189,0.122c-2.459,0.1-4.854,0.52-7.22,1.129
		c-9.475,2.413-17.342,7.387-23.502,14.983c-5.922,7.298-9.104,15.679-9.689,25.031c-0.264,3.959,0.05,7.91,0.923,11.798
		c2.465,10.847,8.159,19.605,17.131,26.175c6.963,5.096,14.798,7.814,23.386,8.289c4.842,0.26,9.652-0.189,14.367-1.422
		c8.772-2.294,16.073-6.873,21.543-14.171c7.936-10.555,9.858-24.081,7.515-36.93C314.228,31.783,300.538,31.783,286.802,31.783z"/>
	<polygon fill="#FFFFFF" points="380.981,32.357 366.14,32.357 366.14,17.509 366.14,17.074 365.699,17.074 354.618,17.074 
		354.175,17.074 354.175,17.509 354.175,32.357 339.334,32.357 338.896,32.357 338.896,32.788 338.896,43.874 338.896,44.318 
		339.334,44.318 354.175,44.318 354.175,59.163 354.175,59.598 354.618,59.598 365.699,59.598 366.14,59.598 366.14,59.163 
		366.14,44.318 380.981,44.318 381.419,44.318 381.419,43.874 381.419,32.788 381.419,32.357 	"/>
</g>
</svg>
