<?xml version="1.0" encoding="utf-8"?>
<!-- Generator: Adobe Illustrator 16.0.0, SVG Export Plug-In . SVG Version: 6.00 Build 0)  -->
<!DOCTYPE svg PUBLIC "-//W3C//DTD SVG 1.1//EN" "http://www.w3.org/Graphics/SVG/1.1/DTD/svg11.dtd">
<svg version="1.1" id="Camada_1" xmlns="http://www.w3.org/2000/svg" xmlns:xlink="http://www.w3.org/1999/xlink" x="0px" y="0px"
	 width="151.333px" height="102px" viewBox="0 0 151.333 102" enable-background="new 0 0 151.333 102" xml:space="preserve">
<g>
	<path fill="#FFFFFF" d="M50.802,42.207c-0.021,0.268-0.039,0.488-0.039,0.695c0,5.344,0.018,16.908,0.018,16.908s22.245,0,23.442,0
		c0,1.741-2.057,8.735-8.603,13.18c-3.84,2.601-8.162,3.799-12.737,4.094c-3.226,0.203-6.4-0.117-9.497-1.104
		c-9.788-3.144-17.07-11.99-18.068-22.772c-0.239-2.657-0.071-5.327,0.538-7.942c2.904-12.753,14.979-22.202,28.809-20.16
		c6.132,0.901,9.656,3.456,12.877,6.203c4.223-4.24,8.417-8.435,12.735-12.757c-1.044-0.758-3.463-3.21-7.757-5.696
		c-6.438-3.714-13.369-5.573-20.781-5.652c-1.399-0.021-2.797,0.067-4.189,0.122c-2.459,0.1-4.854,0.52-7.22,1.129
		c-9.475,2.413-17.342,7.387-23.502,14.983c-5.922,7.298-9.104,15.679-9.689,25.031c-0.264,3.959,0.05,7.91,0.923,11.798
		c2.465,10.847,8.159,19.605,17.131,26.175c6.963,5.096,14.798,7.814,23.386,8.289c4.842,0.26,9.652-0.189,14.367-1.422
		c8.772-2.294,16.073-6.873,21.543-14.171c7.936-10.555,9.858-24.081,7.515-36.93C78.228,42.207,64.538,42.207,50.802,42.207z"/>
	<polygon fill="#FFFFFF" points="144.981,42.781 130.14,42.781 130.14,27.933 130.14,27.498 129.699,27.498 118.618,27.498 
		118.175,27.498 118.175,27.933 118.175,42.781 103.334,42.781 102.896,42.781 102.896,43.212 102.896,54.298 102.896,54.742 
		103.334,54.742 118.175,54.742 118.175,69.587 118.175,70.021 118.618,70.021 129.699,70.021 130.14,70.021 130.14,69.587 
		130.14,54.742 144.981,54.742 145.419,54.742 145.419,54.298 145.419,43.212 145.419,42.781 	"/>
</g>
</svg>
