<?xml version="1.0" encoding="utf-8"?>
<!-- Generator: Adobe Illustrator 16.0.0, SVG Export Plug-In . SVG Version: 6.00 Build 0)  -->
<!DOCTYPE svg PUBLIC "-//W3C//DTD SVG 1.1//EN" "http://www.w3.org/Graphics/SVG/1.1/DTD/svg11.dtd">
<svg version="1.1" id="Camada_1" xmlns="http://www.w3.org/2000/svg" xmlns:xlink="http://www.w3.org/1999/xlink" x="0px" y="0px"
	 width="113px" height="102px" viewBox="0 0 113 102" enable-background="new 0 0 113 102" xml:space="preserve">
<g>
	<path fill="#29ABE2" d="M44.988,3.197c-0.426-0.109-0.882,0.092-1.082,0.501c-14.714,30.11-12.89,62.578-12.809,63.85
		C31.11,76.097,37,83.158,43,84.145v11.77c0,0.784,1.216,1.419,2,1.419c0.783,0,2-0.635,2-1.419V84.24
		c6-0.488,12.303-7.785,12.317-16.692c0.082-1.271,1.722-33.739-12.993-63.85C46.125,3.289,45.413,3.088,44.988,3.197z
		 M56.917,67.448c-0.002,0.022-0.002,0.045-0.002,0.068c0,8.192-5.247,14.858-11.696,14.858c-0.08,0-0.158,0.014-0.231,0.031
		c-0.074-0.018-0.152-0.031-0.232-0.031c-6.449,0-11.695-6.666-11.695-14.858c0-0.023-0.002-0.046-0.003-0.068
		c-0.022-0.32-2.104-31.89,11.931-61.631C59.012,35.541,56.94,67.128,56.917,67.448z"/>
	<path fill="#29ABE2" d="M72.696,39.184c-0.186-0.379-0.59-0.574-0.985-0.518c-0.396-0.057-0.801,0.139-0.985,0.518
		c-8.555,17.506-7.298,36.378-7.238,37.338C63.501,81.684,67,85.945,71,86.551v9.363c0,0.784,0.718,1.419,1.5,1.419
		c0.784,0,1.5-0.635,1.5-1.419v-9.469c4-0.896,6.429-5,6.44-9.924C80.501,75.562,81.25,56.689,72.696,39.184z M78.257,76.422
		c-0.002,0.022-0.002,0.045-0.002,0.067c0,4.236-2.494,7.734-5.692,8.196c-0.174-0.078-0.367-0.123-0.57-0.123
		c-0.233,0-0.452,0.063-0.646,0.162c-3.429-0.156-6.182-3.784-6.182-8.235c0-0.022-0.001-0.045-0.002-0.067
		c-0.015-0.183-1.182-17.909,6.547-34.892C79.43,58.496,78.27,76.239,78.257,76.422z"/>
	<path fill="#29ABE2" d="M48.346,32.105C48.371,32.611,48.789,33,49.29,33c0.016,0,0.031,0,0.049,0c0.521,0,0.923-0.467,0.896-0.988
		c-0.16-3.225-2.61-11.827-2.714-12.192c-0.145-0.502-0.666-0.793-1.17-0.648c-0.502,0.143-0.794,0.664-0.649,1.168
		C45.725,20.425,48.195,29.096,48.346,32.105z"/>
	<path fill="#29ABE2" d="M49.625,38.37c0.023,0.114,2.338,11.486,2.032,17.133c-0.028,0.521,0.372,0.968,0.893,0.995
		c0.018,0.001,0.035,0.002,0.053,0.002c0.5,0,0.917-0.391,0.944-0.896c0.317-5.887-1.97-17.14-2.069-17.615
		c-0.103-0.512-0.602-0.84-1.115-0.736C49.85,37.357,49.52,37.857,49.625,38.37z"/>
	<path fill="#29ABE2" d="M46.608,51c0.019,0,0.035,0,0.053,0c0.522,0,0.922-0.484,0.895-1.006
		c-0.314-5.811-1.849-16.226-1.864-16.33c-0.077-0.518-0.555-0.877-1.074-0.801c-0.517,0.076-0.874,0.558-0.798,1.073
		c0.016,0.104,1.537,10.437,1.847,16.16C45.694,50.602,46.111,51,46.608,51z"/>
	<path fill="#29ABE2" d="M46.418,56.52c-0.512,0.105-0.841,0.605-0.734,1.117c0.017,0.084,1.682,8.408-0.895,15.778
		c-0.173,0.494,0.088,1.033,0.58,1.206c0.104,0.036,0.209,0.053,0.313,0.053c0.391,0,0.755-0.244,0.894-0.634
		c2.752-7.876,1.034-16.426,0.96-16.786C47.43,56.743,46.932,56.412,46.418,56.52z"/>
	<path fill="#29ABE2" d="M52.543,59.656c-0.521,0.049-0.902,0.509-0.855,1.028c0.289,3.134,0.519,11.861-1.85,14.586
		c-0.344,0.395-0.301,0.992,0.092,1.335c0.18,0.155,0.4,0.232,0.621,0.232c0.264,0,0.526-0.11,0.713-0.326
		c3.323-3.82,2.422-14.765,2.308-15.999C53.525,59.992,53.075,59.61,52.543,59.656z"/>
	<path fill="#29ABE2" d="M71.68,50.562c-0.493,0.173-0.754,0.712-0.58,1.205c0.021,0.062,2.163,6.237,2.312,10.304
		c0.021,0.512,0.439,0.93,0.945,0.93c0.012,0,0.023,0,0.036,0c0.521,0,0.93-0.477,0.91-0.998c-0.16-4.35-2.326-10.587-2.418-10.851
		C72.713,50.659,72.174,50.389,71.68,50.562z"/>
	<path fill="#29ABE2" d="M74.628,68.156c0.013,0.079,1.23,8.036-1.058,11.467c-0.289,0.435-0.173,1.021,0.262,1.312
		c0.162,0.108,0.344,0.159,0.524,0.159c0.306,0,0.605-0.148,0.789-0.421c2.696-4.045,1.407-12.456,1.351-12.812
		c-0.081-0.516-0.571-0.869-1.081-0.787C74.9,67.155,74.546,67.64,74.628,68.156z"/>
	<path fill="#29ABE2" d="M70.692,61.165c-0.471,0.227-0.669,0.792-0.442,1.263c0.022,0.047,2.197,4.696,0.35,12.477
		c-0.12,0.508,0.193,1.018,0.702,1.139c0.073,0.018,0.146,0.025,0.219,0.025c0.43,0,0.817-0.293,0.92-0.727
		c2.002-8.427-0.383-13.521-0.485-13.734C71.727,61.136,71.161,60.939,70.692,61.165z"/>
</g>
</svg>
