<?xml version="1.0" encoding="utf-8"?>
<!-- Generator: Adobe Illustrator 16.0.0, SVG Export Plug-In . SVG Version: 6.00 Build 0)  -->
<!DOCTYPE svg PUBLIC "-//W3C//DTD SVG 1.1//EN" "http://www.w3.org/Graphics/SVG/1.1/DTD/svg11.dtd">
<svg version="1.1" id="Camada_1" xmlns="http://www.w3.org/2000/svg" xmlns:xlink="http://www.w3.org/1999/xlink" x="0px" y="0px"
	 width="113px" height="102px" viewBox="0 0 113 102" enable-background="new 0 0 113 102" xml:space="preserve">
<path fill-rule="evenodd" clip-rule="evenodd" fill="#FFFFFF" d="M310.543-189.813c2.936-0.092,5.868-0.021,8.815-0.028
	c0.359,0,0.716,0,1.211,0v-15.272c-1.567-0.157-3.207-0.385-4.849-0.464c-3.012-0.127-6.029-0.285-9.048-0.213
	c-4.604,0.096-8.958,1.215-12.763,3.945c-4.362,3.139-6.757,7.547-7.668,12.753c-0.378,2.146-0.481,4.372-0.535,6.556
	c-0.082,3.428-0.015,6.853-0.015,10.284v1.282H271.08v17.061h14.531v42.884h17.759v-42.812h14.484
	c0.741-5.677,1.464-11.295,2.22-17.146c-1.161,0-2.202,0-3.249,0c-4.116,0.018-13.572,0-13.572,0s0.042-8.451,0.142-12.123
	C303.53-188.131,306.516-189.669,310.543-189.813z"/>
<g>
	<path fill="#FFFFFF" d="M295.136,31.783c-0.021,0.268-0.039,0.488-0.039,0.695c0,5.344,0.018,16.908,0.018,16.908
		s22.245,0,23.442,0c0,1.741-2.057,8.735-8.603,13.18c-3.84,2.601-8.162,3.799-12.737,4.094c-3.226,0.203-6.4-0.117-9.497-1.104
		c-9.788-3.144-17.07-11.99-18.068-22.772c-0.239-2.657-0.071-5.327,0.538-7.942c2.904-12.753,14.979-22.202,28.809-20.16
		c6.132,0.901,9.656,3.456,12.877,6.203c4.223-4.24,8.417-8.435,12.735-12.757c-1.044-0.758-3.463-3.21-7.757-5.696
		c-6.438-3.714-13.369-5.573-20.781-5.652c-1.399-0.021-2.797,0.067-4.189,0.122c-2.459,0.1-4.854,0.52-7.22,1.129
		c-9.475,2.413-17.342,7.387-23.502,14.983c-5.922,7.298-9.104,15.679-9.689,25.031c-0.264,3.959,0.05,7.91,0.923,11.798
		c2.465,10.847,8.159,19.605,17.131,26.175c6.963,5.096,14.798,7.814,23.386,8.289c4.842,0.26,9.652-0.189,14.367-1.422
		c8.772-2.294,16.073-6.873,21.543-14.171c7.936-10.555,9.858-24.081,7.515-36.93C322.562,31.783,308.871,31.783,295.136,31.783z"/>
	<polygon fill="#FFFFFF" points="389.314,32.357 374.474,32.357 374.474,17.509 374.474,17.074 374.032,17.074 362.951,17.074 
		362.509,17.074 362.509,17.509 362.509,32.357 347.668,32.357 347.229,32.357 347.229,32.788 347.229,43.874 347.229,44.318 
		347.668,44.318 362.509,44.318 362.509,59.163 362.509,59.598 362.951,59.598 374.032,59.598 374.474,59.598 374.474,59.163 
		374.474,44.318 389.314,44.318 389.753,44.318 389.753,43.874 389.753,32.788 389.753,32.357 	"/>
</g>
<path fill-rule="evenodd" clip-rule="evenodd" fill="#FFFFFF" d="M39.245,74.695c-10.069-0.349-16.362-7.578-18.03-13.454
	c2.801,0.534,5.563,0.428,8.31-0.246c0.068-0.018,0.139-0.063,0.277-0.128c-5.458-1.269-9.667-4.19-12.595-8.895
	c-1.942-3.135-2.869-6.553-2.84-10.314c2.726,1.453,5.573,2.27,8.626,2.352c-4.101-2.961-6.852-6.82-7.974-11.762
	c-1.123-4.929-0.392-9.625,2.073-14.047c10.505,12.368,23.795,19.148,39.997,20.26c-0.114-0.766-0.231-1.439-0.306-2.119
	c-0.542-4.559,0.36-8.819,2.829-12.678c3.083-4.84,7.486-7.847,13.141-8.766c6.525-1.066,12.223,0.791,16.983,5.405
	c0.316,0.31,0.584,0.413,1.033,0.31c3.98-0.873,7.742-2.302,11.276-4.336c0.083-0.051,0.165-0.096,0.257-0.137
	c0.015-0.006,0.051-0.006,0.126-0.006c-1.533,4.504-4.322,7.981-8.299,10.551c3.751-0.414,7.34-1.408,10.792-2.904
	c0.036,0.031,0.058,0.057,0.078,0.086c-0.744,0.965-1.46,1.963-2.23,2.906c-2.052,2.534-4.411,4.766-7.048,6.695
	c-0.224,0.168-0.321,0.324-0.321,0.613c0.115,2.875,0,5.752-0.359,8.609c-0.748,6.028-2.43,11.772-4.992,17.264
	c-2.657,5.665-6.125,10.789-10.482,15.289c-7.387,7.637-16.284,12.557-26.649,14.845c-3.552,0.78-7.151,1.179-10.793,1.278
	c-11.188,0.336-21.521-2.447-31.028-8.322c-0.128-0.068-0.246-0.154-0.463-0.297c6.77,0.731,13.202-0.139,19.398-2.676
	C33.319,78.729,36.366,76.962,39.245,74.695z"/>
<g>
	<path fill="#FFFFFF" d="M40.379-131.469c-0.557-5.401-2.623-10.18-6.639-14.015c-4.226-4.025-9.385-5.807-15.054-6.11
		c-9.643-0.523-32.561-0.854-40.606,0.452c-9.187,1.504-15.212,6.867-17.756,15.945c-1.953,6.984-1.564,39.178-0.428,46.084
		c1.558,9.438,7.137,15.492,16.494,17.904c6.478,1.672,38.305,1.454,45.442,0.3c9.45-1.524,15.528-7.077,17.98-16.419
		C41.698-94.497,41.032-125.001,40.379-131.469z M32.825-90.449c-1.101,7.173-5.858,11.612-13.07,12.403
		c-6.618,0.724-36.188,1.123-42.338-0.595c-5.876-1.643-9.229-5.684-10.201-11.595c-0.937-5.65-1.168-33.875-0.011-41.426
		c1.076-7.112,5.833-11.548,12.998-12.35c7.277-0.813,33.441-0.905,40.407,0.168c7.162,1.093,11.595,5.864,12.375,13.084
		C33.73-124.021,33.937-97.689,32.825-90.449z M0.008-132.077c-11.641-0.008-21.055,9.417-21.048,21.068
		c0.011,11.595,9.397,21.002,20.999,21.023c11.644,0.027,21.098-9.387,21.098-21.023C21.066-122.66,11.66-132.075,0.008-132.077z
		 M-0.138-97.419c-7.418-0.014-13.466-6.146-13.462-13.665c0-7.511,6.097-13.558,13.661-13.558c7.501,0,13.558,6.1,13.558,13.658
		C13.608-103.433,7.504-97.407-0.138-97.419z M26.793-132.866c-0.008,2.737-2.192,4.907-4.932,4.907
		c-2.74,0-4.907-2.155-4.928-4.903c-0.011-2.771,2.198-4.978,4.978-4.955C24.64-137.804,26.8-135.603,26.793-132.866z"/>
</g>
</svg>
