<?xml version="1.0" encoding="utf-8"?>
<!-- Generator: Adobe Illustrator 16.0.0, SVG Export Plug-In . SVG Version: 6.00 Build 0)  -->
<!DOCTYPE svg PUBLIC "-//W3C//DTD SVG 1.1//EN" "http://www.w3.org/Graphics/SVG/1.1/DTD/svg11.dtd">
<svg version="1.1" id="Camada_1" xmlns="http://www.w3.org/2000/svg" xmlns:xlink="http://www.w3.org/1999/xlink" x="0px" y="0px"
	 width="113px" height="102px" viewBox="0 0 113 102" enable-background="new 0 0 113 102" xml:space="preserve">
<g>
	<path fill="#29ABE2" d="M101.905,35.334c-0.215-0.121-5.366-2.967-13.002-2.967c-6.989,0-17.454,2.504-27.631,14.431
		c-0.325,0.335-5.235,5.327-11.09,7.776c0.899-3.545,1.337-7.107,1.337-10.864c0-4.146-0.531-8.374-1.536-11.812
		C49.865,31.498,49.497,31,49.078,31H13.952c-0.418,0-0.542,0.498-0.661,0.898C12.288,35.328,12,39.551,12,43.695
		c0,0.003,0,0.006,0,0.008c0,0.007,0,0.013,0,0.018c0,4.057,0.257,7.869,1.287,11.657c0.973,3.581,2.263,6.829,4.079,9.653
		c1.808,2.813,3.877,5.039,6.272,6.615c2.5,1.645,5.14,2.479,7.908,2.479c0.11,0,0.204-0.007,0.313-0.015
		c0.024-0.001,0.04-0.003,0.063-0.005c0.958,0.146,1.974,0.219,3.03,0.219c5.26,0,15.79-1.939,27.223-14.932
		c0.023-0.026,0.043-0.053,0.063-0.082c0.161-0.227,16.204-22.759,32.28-22.759c1.398,0,2.776,0.624,4.095,0.968
		c0.077,0.02,0.157,0.48,0.236,0.48h2.593c0.429,0,0.804-0.74,0.912-1.154C102.463,36.43,102.28,35.543,101.905,35.334z M14.667,33
		h33.696c0.778,3,1.207,6.385,1.26,9.822c-20.062,5.373-33.401,1.068-36.218,0.017C13.454,39.362,13.883,36,14.667,33z
		 M60.726,58.184c-10.931,12.401-20.84,14.256-25.777,14.256c-0.995,0-1.949-0.68-2.839-0.818C32.062,71.613,32.014,71,31.964,71
		c-0.011,0-0.022,0-0.033,0c-0.071,0-0.142,0.617-0.213,0.621c-0.067,0.004-0.134,0.314-0.203,0.314
		c-2.394,0-4.715-0.577-6.902-2.017c-2.173-1.431-4.119-3.392-5.784-5.982c-1.711-2.662-3.046-5.697-3.968-9.092
		c-0.868-3.191-1.342-6.384-1.444-9.76c2.473,0.866,8.222,2.49,16.676,2.49c5.438,0,12-0.668,19.521-2.637
		c-0.093,3.395-0.567,6.641-1.446,9.877c-0.071,0.26-0.146,0.505-0.222,0.753l-0.078,0.254c-0.102,0.335-0.009,0.699,0.239,0.945
		c0.25,0.246,0.614,0.333,0.947,0.228c7.205-2.281,13.338-8.643,13.596-8.913c0.012-0.013,0.024-0.025,0.036-0.039
		c7.8-9.151,16.622-13.791,26.216-13.791c1.792,0,3.443,0.171,4.915,0.428C77.236,35.275,61.737,56.758,60.726,58.184z"/>
	<path fill="#29ABE2" d="M17.738,36.662c0.323,0.074,5.524,1.246,13.279,1.246c3.986,0,8.65-0.31,13.668-1.238
		c0.512-0.094,0.851-0.586,0.755-1.098c-0.094-0.512-0.589-0.851-1.098-0.756c-14.376,2.659-26.064,0.035-26.181,0.01
		c-0.504-0.118-1.013,0.198-1.13,0.705C16.915,36.039,17.231,36.544,17.738,36.662z"/>
</g>
</svg>
