<?xml version="1.0" encoding="utf-8"?>
<!-- Generator: Adobe Illustrator 16.0.0, SVG Export Plug-In . SVG Version: 6.00 Build 0)  -->
<!DOCTYPE svg PUBLIC "-//W3C//DTD SVG 1.1//EN" "http://www.w3.org/Graphics/SVG/1.1/DTD/svg11.dtd">
<svg version="1.1" id="Camada_1" xmlns="http://www.w3.org/2000/svg" xmlns:xlink="http://www.w3.org/1999/xlink" x="0px" y="0px"
	 width="113px" height="102px" viewBox="0 0 113 102" enable-background="new 0 0 113 102" xml:space="preserve">
<g>
	<path fill="#29ABE2" d="M62.08,13.32c-6.093-1.289-12.35,0.018-17.616,3.675c-5.242,3.64-8.878,9.177-10.242,15.592
		c-0.244,0.88-3.322,12.798,5.982,23.101l0.062,0.063c0.077,0.071,7.673,7.229,5.761,18.135l-0.014,0.137
		c-0.004,0.119-0.223,11.91,12.416,15.808l0.119,0.028c0.139,0.024,1.517,0.254,3.467,0.254c2.963,0,7.243-0.53,10.486-3.113
		c2.696-2.148,4.176-5.314,4.398-9.411c0.028-0.531-0.38-0.986-0.911-1.015c-0.533-0.03-0.987,0.379-1.016,0.911
		c-0.19,3.519-1.425,6.211-3.667,8.001c-4.48,3.575-11.664,2.59-12.373,2.48C48.12,84.594,47.931,75.087,47.94,74.144
		c2-11.623-5.665-19.149-6.332-19.778c-8.689-9.654-5.555-21.166-5.522-21.279l0.016-0.068c1.257-5.947,4.618-11.074,9.462-14.438
		c4.826-3.352,10.55-4.549,16.118-3.373c11.513,2.434,18.774,14.383,16.185,26.637c-0.111,0.521,0.223,1.033,0.744,1.144
		c0.521,0.11,1.033-0.223,1.143-0.744C82.563,28.948,74.634,15.973,62.08,13.32z"/>
	<path fill="#29ABE2" d="M69.112,71.074c-1.463,0.705-3.095,0.498-4.854-0.614c-0.451-0.286-1.047-0.151-1.331,0.299
		s-0.151,1.046,0.3,1.331c1.553,0.982,2.938,1.322,4.111,1.322c1.049,0,1.929-0.271,2.609-0.599
		c1.555-0.747,2.403-1.952,2.457-2.029c2.961-4.566,1.721-7.996,0.158-10.068c-1.632-2.169-3.924-3.26-4.021-3.306l-0.062-0.026
		c-3.471-1.345-4.955-3.095-4.41-5.204c0.384-1.487,1.6-2.725,1.888-3.004c1.293-0.764,2.56-1.881,3.768-3.324
		c0.914-1.092,1.446-1.967,1.469-2.004l0.083-0.175c3.441-9.635-1.158-15.648-5.595-18.971c-0.206-0.169-5.132-4.11-11.812-3.353
		c-4.803,0.544-9.216,3.363-13.117,8.377c-0.328,0.42-0.252,1.026,0.168,1.354c0.421,0.326,1.027,0.252,1.354-0.17
		c3.563-4.579,7.529-7.15,11.788-7.641c5.866-0.677,10.356,2.893,10.431,2.951c2.997,2.247,4.874,4.865,5.646,7.826
		c-1.824-2.117-4.862-4.22-9.444-3.332l-0.095,0.023c-0.168,0.051-4.136,1.279-6.001,4.957c-1.202,2.369-1.247,5.167-0.134,8.314
		l0.07,0.192l0.135,0.146c0.112,0.122,2.728,3.027,1.355,8.385c-0.133,0.516,0.178,1.041,0.693,1.173
		c0.081,0.021,0.161,0.03,0.241,0.03c0.43,0,0.821-0.289,0.934-0.725c1.469-5.729-1.008-9.213-1.669-10.013
		c-0.868-2.553-0.839-4.777,0.087-6.614c1.394-2.766,4.428-3.859,4.806-3.985c6.386-1.201,9.035,4.721,9.393,5.608
		c-0.104,1.503-0.438,3.075-1.017,4.719c-0.142,0.222-0.585,0.893-1.249,1.688c-1.077,1.287-2.234,2.307-3.35,2.948l-0.159,0.116
		c-0.08,0.07-1.951,1.758-2.535,4.02c-0.569,2.203-0.067,5.285,5.543,7.47c0.115,0.058,0.608,0.313,1.228,0.755
		c-0.663,0.843-1.955,2.175-3.573,2.309c-1.402,0.116-2.849-0.702-4.31-2.432c-0.344-0.407-0.952-0.457-1.358-0.114
		c-0.408,0.344-0.459,0.952-0.114,1.359c1.755,2.077,3.605,3.127,5.51,3.127c0.148,0,0.296-0.006,0.444-0.019
		c2.281-0.194,3.978-1.863,4.862-2.967c0.204,0.215,0.402,0.443,0.589,0.691c1.733,2.299,1.653,4.943-0.22,7.831
		C70.797,69.716,70.196,70.554,69.112,71.074z"/>
</g>
</svg>
